<?xml version="1.0" encoding="UTF-8" standalone="no"?>
<svg
   xmlns:dc="http://purl.org/dc/elements/1.1/"
   xmlns:cc="http://creativecommons.org/ns#"
   xmlns:rdf="http://www.w3.org/1999/02/22-rdf-syntax-ns#"
   xmlns:svg="http://www.w3.org/2000/svg"
   xmlns="http://www.w3.org/2000/svg"
   xmlns:sodipodi="http://sodipodi.sourceforge.net/DTD/sodipodi-0.dtd"
   xmlns:inkscape="http://www.inkscape.org/namespaces/inkscape"
   width="180"
   height="35"
   viewBox="0 0 47.624999 9.2604169"
   version="1.1"
   id="svg8"
   inkscape:version="1.0.1 (3bc2e813f5, 2020-09-07)"
   sodipodi:docname="finish.svg">
  <defs
     id="defs2" />
  <sodipodi:namedview
     id="base"
     pagecolor="#ffffff"
     bordercolor="#666666"
     borderopacity="1.0"
     inkscape:pageopacity="0.0"
     inkscape:pageshadow="2"
     inkscape:zoom="3.959798"
     inkscape:cx="86.184598"
     inkscape:cy="47.575551"
     inkscape:document-units="mm"
     inkscape:current-layer="layer1"
     inkscape:document-rotation="0"
     showgrid="false"
     units="px"
     inkscape:window-width="1710"
     inkscape:window-height="1030"
     inkscape:window-x="32"
     inkscape:window-y="0"
     inkscape:window-maximized="0" />
  <metadata
     id="metadata5">
    <rdf:RDF>
      <cc:Work
         rdf:about="">
        <dc:format>image/svg+xml</dc:format>
        <dc:type
           rdf:resource="http://purl.org/dc/dcmitype/StillImage" />
        <dc:title />
      </cc:Work>
    </rdf:RDF>
  </metadata>
  <g
     inkscape:label="Слой 1"
     inkscape:groupmode="layer"
     id="layer1">
    <path
       style="fill:#0000ff;stroke:#0000ff;stroke-width:0.264583"
       id="path45"
       d="M 7.0420547,4.4394307 C 6.7441796,4.2657548 6.4378448,4.1045836 6.1138334,3.9857566 5.6627937,3.9082247 5.1874819,3.8783304 4.7350283,3.9684264 4.6484203,3.9856719 4.5640855,4.0128324 4.4786139,4.0350357 4.252819,4.1166549 4.0242566,4.2022725 3.8154541,4.3227548 3.1867543,4.6855247 2.9300609,4.7518174 2.5414622,5.1839936 2.2597083,5.5534631 2.2508723,6.0045578 2.2950536,6.4472036 c 0.077995,0.5430353 0.430795,0.9806419 0.7567492,1.4017575 0.2967339,0.3372635 0.5753852,0.7010804 0.9237951,0.9886907 0.061208,0.050527 0.1269833,0.095253 0.1904751,0.142879 0.2544953,0.1795327 0.5508808,0.2872076 0.8516427,0.3607652 0.063269,0.015473 0.1265166,0.032775 0.1912302,0.040165 0.071365,0.00815 0.1435974,0.00418 0.215396,0.00627 0.068323,-0.0092 0.138162,-0.010578 0.2049695,-0.027589 C 5.7054284,9.340761 5.7813966,9.316333 5.8506076,9.279195 6.6332224,8.859259 6.957161,8.7077419 7.4844091,8.1255332 7.7184638,7.8346455 7.9262784,7.5158162 8.0663266,7.1680937 8.1365436,6.9937529 8.1698067,6.8547183 8.2199699,6.674301 8.3499977,6.1307291 8.3965417,5.5731909 8.426578,5.0166521 8.4487421,4.5414136 8.3716441,4.0720502 8.3155739,3.6021023 8.2676647,3.1805499 8.2608456,2.7563085 8.2277301,2.3336424 8.2020197,2.0302362 8.1922222,1.7258958 8.1871941,1.421556 8.1802408,1.2903045 8.1883053,1.1585388 8.1838444,1.0272965 8.1801138,0.91765219 8.1623867,0.8180734 8.1738088,0.70866862 c 0,0 -0.8757049,0.44068388 -0.8757049,0.44068388 v 0 c -5.821e-4,0.2383343 0.037053,0.4768211 0.022947,0.7161275 0.00947,0.3041796 0.028606,0.6078411 0.054815,0.9110419 0.036287,0.4219532 0.051976,0.8453003 0.099659,1.2662563 C 7.5310089,4.5072773 7.602983,4.9712623 7.5833916,5.4409379 7.5575736,5.9918578 7.5138668,6.5451158 7.3673353,7.079244 7.3126334,7.2653543 7.2849067,7.3792513 7.2092978,7.558393 7.065678,7.8986728 6.857974,8.2095701 6.6174302,8.4883944 6.4504283,8.6635896 6.4125437,8.7151492 6.2212164,8.8675294 6.1499855,8.9242605 5.917307,9.0661505 5.9997466,9.0274724 6.2064322,8.930502 6.4021694,8.8111718 6.5965527,8.6914338 c 0.06367,-0.03922 -0.1328947,0.069969 -0.2037382,0.093913 -0.063352,0.021413 -0.1308809,0.027532 -0.1963213,0.041299 -0.067419,0.0022 -0.1349516,0.011073 -0.2022571,0.00659 C 5.9297151,8.8289341 5.8663694,8.8134877 5.8030379,8.8004284 5.5080577,8.7395983 5.2176761,8.6441768 4.9674218,8.4727406 4.5385907,8.1624857 4.1914214,7.7770216 3.8519253,7.3730431 3.5397876,6.960981 3.2059454,6.5347444 3.1409129,6.0055447 3.0980702,5.5778365 3.1294855,5.1543531 3.4246605,4.8156762 3.47117,4.7696908 3.5150292,4.7208603 3.5641893,4.67772 3.7905126,4.4791108 4.2253606,4.2672703 3.073224,4.9186139 3.0085535,4.9551745 3.203036,4.8462422 3.2693816,4.8128171 3.4713082,4.7110853 3.5202632,4.6960395 3.7319619,4.609489 3.8153209,4.584121 3.8972238,4.553352 3.9820379,4.533381 4.4169933,4.4309613 4.8795013,4.446482 5.3158167,4.525721 c 0.3174442,0.1041472 0.6198748,0.2502943 0.8937096,0.4429966 0,0 0.8325284,-0.5292814 0.8325284,-0.5292814 z" />
    <path
       style="fill:#0000ff;stroke:#0000ff;stroke-width:0.264583"
       id="path47"
       d="m 14.503875,1.18476 c -0.183616,0.080801 -0.377683,0.1346508 -0.560019,0.2190141 -0.385092,0.1781743 -0.730663,0.4316787 -1.092889,0.6526633 -0.247765,0.2550947 -0.413706,0.5915763 -0.49651,0.9369596 -0.02008,0.08377 -0.02886,0.1698518 -0.0433,0.2547777 -0.06037,0.4969942 0.03962,0.9864199 0.164473,1.4649813 0.120418,0.4334176 0.313379,0.84133 0.491268,1.2531402 0.192168,0.471737 0.500282,0.8812847 0.778664,1.3037325 0.228578,0.348865 0.505547,0.6564159 0.810947,0.9383471 0.14355,0.119616 0.284198,0.2477757 0.450778,0.3355086 0.03164,0.016661 0.1774,0.079904 0.215682,0.096677 0.290393,0.1192083 0.484967,0.1220224 0.786814,0.040877 C 16.816126,8.3197133 17.28446,7.9663414 17.77401,7.3102652 18.056609,6.9321182 18.246823,6.5037065 18.393058,6.0579071 18.534908,5.6359297 18.623109,5.199666 18.640075,4.755026 18.618852,4.3282121 18.520813,3.9144638 18.397626,3.5073029 18.275515,3.1005127 18.067857,2.7289657 17.861717,2.3603143 17.646102,1.9632233 17.432473,1.5664236 17.166065,1.2008093 16.984797,0.95979118 16.763812,0.75767881 16.523365,0.57771457 16.230134,0.3516915 15.884813,0.2407184 15.526374,0.17174394 15.260126,0.12841764 14.99071,0.11445124 14.721426,0.10979474 c -0.05244,0.0128111 -0.107115,0.0185933 -0.157319,0.0384333 -0.07144,0.0282331 -0.138523,0.0667421 -0.205228,0.10484076 -0.340463,0.19445441 -0.679777,0.39100133 -1.016017,0.59266976 -0.06423,0.0385235 -0.123237,0.0851516 -0.184926,0.12762587 -0.05436,0.0374285 -0.112419,0.0699496 -0.16322,0.11208247 -0.04685,0.038852 -0.08561,0.086527 -0.128414,0.1297903 -0.128469,0.1820805 -0.100806,0.081475 -0.08561,0.3010827 0,0 0.865525,-0.4416841 0.865525,-0.4416841 v 0 c 0.01455,-0.15554828 -0.0123,-0.0766318 0.109474,-0.22484255 0.164753,-0.1449642 0.0977,-0.0949162 0.287964,-0.22373294 0.06077,-0.0411427 0.248288,-0.1560589 0.183377,-0.12182542 -0.206542,0.10892767 -0.404947,0.23265716 -0.608951,0.34626776 -0.0617,0.03436 0.119672,-0.0752418 0.181979,-0.10848485 0.0417,-0.0222469 0.08634,-0.0384698 0.129509,-0.0577048 0.270102,-0.001063 0.540931,0.002517 0.809073,0.0388001 0.348573,0.0570144 0.684693,0.15100433 0.96945,0.3704836 0.233819,0.1742523 0.442009,0.3757313 0.631173,0.5977553 0.06121,0.079635 0.16784,0.21561 0.221933,0.2978208 0.177703,0.2700683 0.322174,0.5610389 0.479597,0.8428172 0.197779,0.365939 0.392777,0.7358837 0.517516,1.1344139 0.119468,0.3973536 0.223541,0.8008586 0.227816,1.2189105 -0.02263,0.4351028 -0.107147,0.8631349 -0.251296,1.2749282 -0.154319,0.4356409 -0.346184,0.8550735 -0.630245,1.2235862 -0.146092,0.1853374 -0.294878,0.3591473 -0.468704,0.519461 -0.05289,0.048777 -0.228465,0.1705443 -0.162296,0.1422937 0.331673,-0.1416085 0.954262,-0.543664 0.500343,-0.2543712 -0.08143,0.027531 -0.201302,0.073272 -0.289012,0.083412 -0.151266,0.017486 -0.307343,-0.030843 -0.449009,-0.076159 -0.07054,-0.029088 -0.143249,-0.053078 -0.212447,-0.085223 C 15.657125,7.9359722 15.519173,7.8107529 15.373603,7.7020665 15.068198,7.430984 14.790927,7.1311155 14.560371,6.7927812 14.281827,6.3764247 13.982454,5.9697101 13.793005,5.5019609 13.616443,5.0944642 13.435975,4.6861539 13.313302,4.2585031 13.187081,3.7943118 13.085988,3.318243 13.160228,2.8355605 c 0.01743,-0.08178 0.03006,-0.1647334 0.05229,-0.2453407 0.0936,-0.3393624 0.267596,-0.6605965 0.535407,-0.8921397 -1.456596,0.802167 -0.413525,0.1776661 -0.01714,0.1050798 0,0 0.773091,-0.6183999 0.77309,-0.6183999 z" />
    <path
       style="fill:#0000ff;stroke:#0000ff;stroke-width:0.264583"
       id="path49"
       d="m 23.524799,1.7380699 c -0.04877,0.2119283 -0.138803,0.4113051 -0.205639,0.6175396 -0.03057,0.094337 -0.09394,0.3283841 -0.120073,0.4231952 -0.124275,0.4162218 -0.257237,0.8297434 -0.37616,1.2478559 -0.128261,0.471728 -0.192647,0.9568429 -0.270334,1.4384801 -0.07002,0.3733707 -0.105214,0.7505242 -0.12514,1.1293646 -0.01895,0.2750021 -0.0029,0.5505903 -0.01669,0.8255834 -0.01919,0.2957578 -0.0469,0.5928825 -0.10199,0.8844385 0.302728,-0.2037902 0.605457,-0.4075805 0.908186,-0.6113708 0,0 -0.863496,0.4201247 -0.863496,0.4201247 v 0 c 0.280324,-0.083522 0.560648,-0.1670447 0.840973,-0.250567 -0.0122,-0.2923207 0.08365,-0.5839301 0.07892,-0.8768175 0.01322,-0.2752402 0.01067,-0.5507117 0.01719,-0.8261575 0.01474,-0.372138 0.05172,-0.7427259 0.111081,-1.1105184 0.07484,-0.4801394 0.147139,-0.9618774 0.280316,-1.430234 0.122502,-0.4172731 0.25645,-0.8310068 0.376567,-1.2488569 0.102495,-0.3586259 0.231561,-0.7063284 0.359595,-1.0563398 0,0 -0.893312,0.4242799 -0.893312,0.4242799 z" />
    <path
       style="fill:#0000ff;stroke:#0000ff;stroke-width:0.264583"
       id="path51"
       d="m 23.62269,2.0551588 c 0.514882,0.5326404 0.918621,1.1626584 1.335587,1.7722433 0.396432,0.5853676 0.741541,1.2029091 1.060832,1.8330405 0.205602,0.4447146 0.410063,0.8895223 0.634735,1.3249941 0.150583,0.3337632 0.350658,0.6418485 0.541039,0.9537134 0.171389,0.2861104 0.328779,0.5793176 0.484912,0.8737306 0.318103,0.5167035 1.037339,-0.2544196 1.23662,-0.6521566 0.03079,-0.061456 0.0534,-0.126683 0.0801,-0.1900245 0.158975,-0.4854337 0.252788,-0.9873597 0.311888,-1.4936605 0.03189,-0.4555138 0.05005,-0.9114631 0.08484,-1.366951 0.0457,-0.3959405 0.110995,-0.791386 0.212468,-1.1769794 0.14808,-0.4796721 0.329745,-0.9480708 0.517562,-1.413367 0.166415,-0.3701512 0.324506,-0.7473063 0.548862,-1.0869348 0.09438,-0.1425818 0.03989,-0.078972 0.162248,-0.1918803 0,0 -0.898183,0.3750611 -0.898183,0.3750611 v 0 c -0.10976,0.1325575 -0.06025,0.063293 -0.149001,0.2074502 -0.203192,0.3494128 -0.363833,0.7207986 -0.520766,1.0927665 -0.185004,0.4716759 -0.372985,0.9431261 -0.520477,1.428219 -0.09731,0.3923725 -0.172324,0.7926969 -0.209789,1.1953591 -0.02439,0.4524661 -0.03652,0.9056688 -0.07616,1.3571117 -0.05908,0.4997106 -0.147127,1.0002004 -0.332915,1.4702192 -0.07235,0.1421918 -0.09289,0.2029111 -0.191622,0.3239143 -0.0303,0.037134 -0.144735,0.121735 -0.100848,0.1024779 0.271393,-0.1190864 0.527531,-0.2702941 0.791297,-0.4054412 -0.01497,0.00273 -0.03181,0.015973 -0.04489,0.0082 -0.02569,-0.015285 -0.03823,-0.045996 -0.05735,-0.068994 C 28.354327,8.0392539 28.195055,7.7450954 28.024497,7.4576582 27.836127,7.1466132 27.641581,6.8383332 27.484803,6.5095945 27.249998,6.0800037 27.038646,5.6401501 26.830956,5.1968931 26.501309,4.5673218 26.136337,3.9576314 25.734779,3.3709821 25.314474,2.7607781 24.909549,2.1396068 24.464084,1.5472254 c 0,0 -0.841394,0.5079336 -0.841394,0.5079334 z" />
    <path
       style="fill:#0000ff;stroke:#0000ff;stroke-width:0.264583"
       id="path53"
       d="m 36.057747,4.6357497 c 0.433276,0.072356 0.866743,0.1062741 1.305552,0.091516 0.252352,-0.011396 0.497493,-0.059111 0.719188,-0.1863143 0.154707,-0.088766 0.941699,-0.4567269 1.202703,-0.7960273 0.05058,-0.065745 0.08273,-0.1437933 0.124095,-0.2156899 0.02495,-0.073736 0.06289,-0.1442892 0.07482,-0.2212094 0.06775,-0.4366038 -0.287369,-0.8693987 -0.547457,-1.176405 -0.310309,-0.327838 -0.671187,-0.6215837 -1.107409,-0.7611161 -0.08868,-0.028368 -0.18053,-0.0457 -0.270795,-0.068549 -0.358886,-0.080343 -0.731486,-0.078293 -1.085946,0.026703 -0.217024,0.064286 -0.344595,0.134596 -0.546613,0.2309653 -0.669845,0.3768642 -1.399998,0.7333998 -1.866664,1.3710748 -0.05066,0.069222 -0.09346,0.1438662 -0.140184,0.2157992 -0.247709,0.4299273 -0.299948,0.9144842 -0.286309,1.4006727 0.0386,0.5182711 0.277784,0.9747131 0.566211,1.395282 0.333489,0.4663162 0.748067,0.8656442 1.190784,1.2267597 0.359267,0.2798836 0.750996,0.515883 1.171157,0.6912787 0.338008,0.1320864 0.69937,0.1580576 1.057955,0.1742948 0.271579,0.013359 0.54257,-0.017267 0.812858,-0.039586 0.169622,-0.020484 0.338394,-0.048195 0.507238,-0.074433 0.376129,-0.096728 0.795713,-0.268618 0.981268,-0.6147295 0,0 -0.905782,0.3926081 -0.905782,0.3926081 v 0 C 38.687397,8.0326516 40.096515,7.0543526 39.723889,7.322339 39.56116,7.374313 39.382682,7.369988 39.217249,7.414688 38.945667,7.436323 38.674676,7.479192 38.401602,7.470254 38.048365,7.461464 37.691823,7.444354 37.354347,7.3287932 36.933563,7.1689126 36.549623,6.9356157 36.189737,6.6659156 35.740551,6.3237331 35.334384,5.9314368 35.012577,5.464363 34.734722,5.0574074 34.503034,4.6183788 34.476367,4.1156334 c -0.0016,-0.4721061 0.05081,-0.9375487 0.307776,-1.3473425 0.15112,-0.2179596 0.305957,-0.4133721 0.505974,-0.5899376 0.07117,-0.062824 0.14546,-0.1221688 0.221416,-0.1791102 0.07569,-0.056743 0.31927,-0.2010096 0.23322,-0.1617096 -0.190894,0.087184 -0.36667,0.2042597 -0.550005,0.3063895 0.183181,-0.093764 0.333975,-0.1794685 0.530209,-0.2454543 0.34191,-0.1149726 0.708191,-0.1355037 1.060288,-0.062568 0.216371,0.050838 0.294757,0.05849 0.496628,0.1469038 0.327989,0.1436483 0.606833,0.3745886 0.851758,0.6318298 0.239927,0.2832696 0.577156,0.6900554 0.488754,1.0950872 -0.01543,0.070634 -0.05314,0.1344742 -0.07971,0.2017112 -0.04377,0.064276 -0.07998,0.1344004 -0.131297,0.1928286 -0.212402,0.2418511 -0.629774,0.4057933 0.408371,-0.1522794 0.07434,-0.03996 -0.145073,0.087538 -0.223091,0.1197227 -0.18188,0.075032 -0.279845,0.073903 -0.4724,0.097594 -0.422286,0.022804 -0.844217,0.00847 -1.255149,-0.1028044 0,0 -0.811361,0.569255 -0.811361,0.569255 z" />
    <path
       style="fill:#ffaaaa;stroke:#ff0000;stroke-width:0.264583"
       id="path20"
       d="m 41.289066,3.7630877 c 0.158001,0.2379297 0.289512,0.4901322 0.408225,0.7493757 0.144606,0.3437765 0.29867,0.6827017 0.462034,1.0179137 0.14994,0.3202323 0.300054,0.6399665 0.467852,0.9513403 0.11135,0.2057241 0.238073,0.4027543 0.343647,0.6115807 0.04545,0.078788 0.101645,0.2796677 0.163951,0.3382959 0.01955,0.018399 0.04583,0.027985 0.06874,0.041977 0.300204,-0.17747 0.608005,-0.3426761 0.90061,-0.5324107 0.0074,-0.00477 0.08514,-0.1745546 0.08958,-0.183661 C 44.273035,6.594685 44.3565,6.4346126 44.44318,6.2756057 44.743572,5.7573621 45.050349,5.2426131 45.362253,4.731101 45.644169,4.2533815 45.971731,3.8048427 46.295462,3.3550746 46.517553,3.0673095 46.710244,2.7574792 46.891134,2.442512 c 0.109522,-0.2074779 0.210333,-0.4171473 0.273312,-0.6435627 0.02516,-0.1183613 0.01455,-0.05999 0.0322,-0.1750433 0,0 -0.883348,0.4319787 -0.883348,0.4319787 v 0 c -0.01916,0.1072027 -0.0079,0.052854 -0.03427,0.1629696 -0.06629,0.2161429 -0.167663,0.4179488 -0.272687,0.6176751 -0.178332,0.3083533 -0.365093,0.6125802 -0.581652,0.8959236 -0.320265,0.4468217 -0.626949,0.9035592 -0.911479,1.3740809 -0.317222,0.5168559 -0.624975,1.0394686 -0.939276,1.5580119 -0.09154,0.1633019 -0.177181,0.3300582 -0.269973,0.4926097 -0.200282,0.3508484 -0.560594,0.4425286 0.694224,-0.2795172 -0.0029,0.017931 0.0078,0.046362 -0.0088,0.05379 -0.01836,0.00822 -0.155948,-0.302232 -0.166404,-0.3251878 C 43.712295,6.3991473 43.579913,6.2056567 43.463681,6.0016939 43.294705,5.6925058 43.142377,5.3755117 42.994205,5.0560294 42.830727,4.7220864 42.67658,4.3845778 42.535248,4.0405131 42.421004,3.7737115 42.278517,3.5241322 42.146969,3.2658449 c 0,0 -0.857914,0.4972428 -0.857914,0.4972428 z" />
  </g>
</svg>
